<?xml version="1.0" encoding="iso-8859-1"?>
<!-- Generator: Adobe Illustrator 19.0.0, SVG Export Plug-In . SVG Version: 6.00 Build 0)  -->
<svg version="1.1" id="Capa_1" xmlns="http://www.w3.org/2000/svg" xmlns:xlink="http://www.w3.org/1999/xlink" x="0px" y="0px"
	 viewBox="0 0 512 512" style="enable-background:new 0 0 512 512;" xml:space="preserve">
<path style="fill:#404B58;" d="M437.976,172.844c-23.294,8.126-48.887-0.508-63.14-20.645
	c-9.227-13.036-20.605-24.517-33.824-34.027c-24.917-17.925-54.314-27.4-85.012-27.4c-30.696,0-60.093,9.475-85.01,27.4
	c-13.219,9.509-24.598,20.99-33.824,34.027c-14.253,20.138-39.846,28.771-63.14,20.646l-8.051-2.808
	c13.686-39.234,38.754-72.8,72.496-97.071C172.918,48.181,213.56,35.082,256,35.082c42.441,0,83.083,13.099,117.534,37.882
	c33.74,24.272,58.808,57.838,72.494,97.071L437.976,172.844z"/>
<path style="opacity:0.1;enable-background:new    ;" d="M373.534,72.965C339.083,48.181,298.441,35.082,256,35.082
	c-42.44,0-83.082,13.099-117.531,37.882c-33.741,24.271-58.81,57.837-72.496,97.071l8.051,2.808
	c8.457,2.95,17.215,3.681,25.625,2.464c11.99-29.34,31.774-54.499,57.668-73.124C186.242,81.375,220.366,70.377,256,70.377
	c35.635,0,69.76,10.998,98.685,31.807c25.892,18.627,45.676,43.786,57.667,73.125c8.41,1.216,17.168,0.485,25.624-2.465l8.051-2.808
	C432.341,130.803,407.274,97.237,373.534,72.965z"/>
<path style="fill:#ED718B;" d="M441.155,429.221l-52.33-19.047l39.452-108.394c13.779-37.858,14.788-78.219,2.92-116.718
	c-11.87-38.499-35.43-71.284-68.136-94.81c-64.04-46.07-150.088-46.068-214.121,0c-32.705,23.527-56.266,56.311-68.136,94.81
	c-11.868,38.499-10.86,78.86,2.92,116.718l39.452,108.394l-52.33,19.047L31.393,320.828
	c-17.965-49.358-19.281-101.977-3.807-152.172c15.476-50.193,46.192-92.938,88.831-123.611c83.489-60.06,195.676-60.06,279.165,0
	c42.639,30.673,73.355,73.417,88.831,123.611c15.475,50.195,14.159,102.814-3.807,152.172L441.155,429.221z"/>
<path style="opacity:0.1;enable-background:new    ;" d="M467.266,340.107L467.266,340.107c-7.8-9.865-18.189-17.367-30.007-21.668
	l-13.285-4.836l-35.149,96.572l52.33,19.047l30.291-83.225C470.161,343.976,468.77,342.008,467.266,340.107z"/>
<path style="opacity:0.1;enable-background:new    ;" d="M44.734,340.107L44.734,340.107c7.8-9.865,18.189-17.367,30.007-21.668
	l13.285-4.836l35.149,96.572l-52.33,19.047l-30.291-83.225C41.839,343.976,43.23,342.008,44.734,340.107z"/>
<path style="fill:#404B58;" d="M198.465,487.654l-41.58,15.134l-61.6-169.245l41.58-15.134c12.657-4.607,26.653,1.919,31.259,14.577
	l44.917,123.409C217.649,469.052,211.123,483.047,198.465,487.654z"/>
<path style="fill:#FDA75F;" d="M105.898,510.599L105.898,510.599c12.316,2.543,25.097,1.612,36.915-2.689l14.072-5.122
	l-61.6-169.245l-14.072,5.122c-11.818,4.301-22.207,11.803-30.007,21.668l0,0c-15.168,19.183-19.31,44.856-10.946,67.836
	l13.649,37.501C62.273,488.65,81.949,505.653,105.898,510.599z"/>
<path style="opacity:0.1;enable-background:new    ;" d="M213.042,456.394l-4.883-13.415c0.607,10.619-5.731,20.825-16.24,24.65
	l-56.453,20.547c-11.988,4.363-24.952,5.308-37.446,2.728l0,0c-20.072-4.145-37.177-16.644-47.304-34.009l3.193,8.774
	c8.364,22.98,28.04,39.984,51.989,44.929l0,0c12.316,2.543,25.097,1.612,36.915-2.689l55.652-20.256
	C211.123,483.047,217.649,469.052,213.042,456.394z"/>
<path style="opacity:0.1;enable-background:new    ;" d="M188.019,387.645L188.019,387.645l-23.574,8.58
	c-3.89,1.416-5.897,5.718-4.48,9.609c1.108,3.044,3.983,4.934,7.046,4.934c0.851,0,1.717-0.146,2.563-0.454l23.574-8.58
	L188.019,387.645z M171.395,341.971L171.395,341.971l-23.574,8.581c-3.89,1.416-5.897,5.718-4.48,9.609
	c1.108,3.044,3.983,4.934,7.046,4.934c0.851,0,1.717-0.146,2.563-0.454l23.574-8.58L171.395,341.971z M204.643,433.318
	l-23.574,8.581c-3.891,1.416-5.897,5.718-4.48,9.609c1.109,3.045,3.983,4.934,7.046,4.934c0.851,0,1.717-0.146,2.563-0.454
	l23.574-8.581L204.643,433.318z"/>
<path style="fill:#404B58;" d="M313.535,487.654l41.58,15.134l61.6-169.245l-41.58-15.134c-12.657-4.607-26.653,1.919-31.259,14.577
	l-44.917,123.409C294.351,469.052,300.877,483.047,313.535,487.654z"/>
<path style="fill:#FDA75F;" d="M406.102,510.599L406.102,510.599c-12.316,2.543-25.097,1.612-36.915-2.689l-14.071-5.122
	l61.6-169.245l14.072,5.122c11.818,4.301,22.207,11.803,30.007,21.668l0,0c15.168,19.183,19.31,44.856,10.946,67.836l-13.649,37.501
	C449.727,488.65,430.051,505.653,406.102,510.599z"/>
<path style="opacity:0.1;enable-background:new    ;" d="M318.853,401.734l23.574,8.58c0.846,0.307,1.712,0.454,2.563,0.454
	c3.063,0,5.938-1.891,7.046-4.934c1.416-3.891-0.591-8.193-4.48-9.609l-23.574-8.58l0,0L318.853,401.734z M335.476,356.061
	l23.574,8.58c0.846,0.307,1.712,0.454,2.563,0.454c3.063,0,5.938-1.891,7.046-4.934c1.416-3.891-0.591-8.193-4.48-9.609
	l-23.574-8.58l0,0L335.476,356.061z M302.229,447.408l23.574,8.581c0.846,0.307,1.712,0.454,2.563,0.454
	c3.063,0,5.937-1.89,7.046-4.934c1.416-3.891-0.59-8.193-4.48-9.609l-23.574-8.581L302.229,447.408z"/>
<path style="opacity:0.1;enable-background:new    ;" d="M460.794,360.333L460.794,360.333c-4.106-5.193-8.936-9.724-14.307-13.485
	c10.826,18.074,13.078,40.232,5.763,60.33l-13.65,37.501c-8.364,22.98-28.04,39.984-51.989,44.929
	c-12.316,2.543-25.097,1.612-36.915-2.689l-51.989-18.922c1.18,8.69,7.015,16.45,15.828,19.657l55.652,20.256
	c11.818,4.301,24.599,5.232,36.915,2.689l0,0c23.949-4.945,43.625-21.949,51.989-44.929l13.649-37.501
	C480.104,405.188,475.961,379.516,460.794,360.333z"/>
<g>
</g>
<g>
</g>
<g>
</g>
<g>
</g>
<g>
</g>
<g>
</g>
<g>
</g>
<g>
</g>
<g>
</g>
<g>
</g>
<g>
</g>
<g>
</g>
<g>
</g>
<g>
</g>
<g>
</g>
</svg>
